<svg xmlns="http://www.w3.org/2000/svg" xmlns:xlink="http://www.w3.org/1999/xlink" viewBox="0,0,256,256" width="50px" height="50px" fill-rule="nonzero"><g fill="#222222" fill-rule="nonzero" stroke="none" stroke-width="1" stroke-linecap="butt" stroke-linejoin="miter" stroke-miterlimit="10" stroke-dasharray="" stroke-dashoffset="0" font-family="none" font-weight="none" font-size="none" text-anchor="none" style="mix-blend-mode: normal"><g transform="scale(5.12,5.12)"><path d="M2.84375,13c-1.57031,0 -2.84375,1.27734 -2.84375,2.84375v26.15625c0,1.56641 1.42969,3 3,3h4.09375c0.47656,2.83594 2.9375,5 5.90625,5c2.96875,0 5.42969,-2.16406 5.90625,-5h9.25c1.56641,0 2.84375,-1.27734 2.84375,-2.84375v-26.25c0,-1.60156 -1.26172,-2.90625 -2.8125,-2.90625zM33,20v25c0.48047,2.83203 3.03125,5 6,5c2.96875,0 5.42969,-2.16797 5.90625,-5h2.09375c1.57031,0 3,-1.42969 3,-3v-9.625c0,-2.01172 -1.44922,-4.06641 -1.625,-4.3125l-4.15625,-5.5625c-0.95312,-1.14844 -2.44922,-2.5 -4.21875,-2.5zM38,25h5.59375l3.1875,4.25c0.33984,0.48047 1.21875,1.95313 1.21875,3.125v0.625h-10c-1,0 -2,-1 -2,-2v-4c0,-1.10547 1,-2 2,-2zM13,40c2.20703,0 4,1.79297 4,4c0,2.20703 -1.79297,4 -4,4c-2.20703,0 -4,-1.79297 -4,-4c0,-2.20703 1.79297,-4 4,-4zM39,40c2.20703,0 4,1.79297 4,4c0,2.20703 -1.79297,4 -4,4c-2.20703,0 -4,-1.79297 -4,-4c0,-2.20703 1.79297,-4 4,-4z"></path></g></g></svg>