<svg xmlns="http://www.w3.org/2000/svg" xmlns:xlink="http://www.w3.org/1999/xlink" viewBox="0,0,256,256" width="50px" height="50px" fill-rule="nonzero"><g fill="#222222" fill-rule="nonzero" stroke="none" stroke-width="1" stroke-linecap="butt" stroke-linejoin="miter" stroke-miterlimit="10" stroke-dasharray="" stroke-dashoffset="0" font-family="none" font-weight="none" font-size="none" text-anchor="none" style="mix-blend-mode: normal"><g transform="scale(5.12,5.12)"><path d="M11.6875,2c-1.29687,0 -2.39844,0.8125 -2.8125,2c-1.59375,0.07031 -2.875,1.39063 -2.875,3v3h38v-3c0,-1.60937 -1.28125,-2.92969 -2.875,-3c-0.41406,-1.1875 -1.51562,-2 -2.8125,-2zM8,12v33c0,1.65234 1.34766,3 3,3h28c1.65234,0 3,-1.34766 3,-3v-33zM10,20h30v18h-30zM19,22v9h2v-3h1.65625l2.9375,4.375l-2.59375,3.625h2l1.5625,-2.15625l1.4375,2.15625h2l-2.40625,-3.625l2.40625,-3.375h-2l-1.375,1.9375l-2.21875,-3.3125c0.94141,-0.50781 1.59375,-1.48828 1.59375,-2.625c0,-1.64453 -1.35547,-3 -3,-3zM21,24h2c0.56641,0 1,0.43359 1,1c0,0.56641 -0.43359,1 -1,1h-2z"></path></g></g></svg>