<svg xmlns="http://www.w3.org/2000/svg" xmlns:xlink="http://www.w3.org/1999/xlink" viewBox="0,0,256,256" width="50px" height="50px" fill-rule="nonzero"><g fill="#222222" fill-rule="nonzero" stroke="none" stroke-width="1" stroke-linecap="butt" stroke-linejoin="miter" stroke-miterlimit="10" stroke-dasharray="" stroke-dashoffset="0" font-family="none" font-weight="none" font-size="none" text-anchor="none" style="mix-blend-mode: normal"><g transform="scale(5.12,5.12)"><path d="M25,1c-4.02344,0 -6.30859,1.04688 -6.40625,1.09375c-0.07031,0.03125 -0.12891,0.07813 -0.1875,0.125c-0.01172,0.00781 -0.05078,-0.00781 -0.0625,0l-5.125,4.34375v-0.03125c-0.14453,0.12109 -0.31641,0.26172 -0.5,0.40625l4.0625,3.1875c0.22656,0.17578 0.38672,0.43359 0.40625,0.71875c0.01953,0.28516 -0.10937,0.57813 -0.3125,0.78125l-1.84375,1.875l7.90625,4.28125c0.33203,-1.17578 0.73438,-2.24219 1.15625,-3.21875c-1.64453,-2.51562 -3.89453,-6.12891 -4.09375,-10.875c0.84375,-0.26953 2.57031,-0.6875 5,-0.6875c2.42578,0 4.125,0.41797 4.96875,0.6875c-0.08594,1.52344 -0.42187,3.01953 -0.9375,4.5c-0.48437,1.53125 -1.08984,2.99609 -1.78125,4.375c-1.39062,2.76953 -2.80859,5.63281 -3.15625,10.25l11.0625,-9.15625l-2.03125,-2.03125c-0.19922,-0.19922 -0.32812,-0.49609 -0.3125,-0.78125c0.01563,-0.28516 0.15234,-0.53906 0.375,-0.71875l4.0625,-3.21875c-0.16406,-0.13281 -0.33594,-0.26172 -0.46875,-0.375v0.03125l-5.125,-4.3125c-0.01172,-0.00781 -0.05078,-0.02344 -0.0625,-0.03125c-0.05859,-0.04687 -0.11719,-0.09375 -0.1875,-0.125c-0.09766,-0.04687 -2.38672,-1.09375 -6.40625,-1.09375zM38.84375,8.1875l-3.53125,2.8125l2.03125,2.03125c0.19922,0.19922 0.29297,0.46875 0.28125,0.75c-0.01562,0.28125 -0.125,0.53906 -0.34375,0.71875l-13.28125,10.96875v20.53125h-2v-21c0,-1.98437 0.17969,-3.69141 0.46875,-5.21875l-9.59375,-5.1875c-0.27734,-0.14844 -0.45312,-0.40625 -0.5,-0.71875c-0.04687,-0.3125 0.05859,-0.62109 0.28125,-0.84375l2.03125,-2.03125l-3.59375,-2.78125c-3.52344,2.83203 -9.09375,8.04688 -9.09375,16.78125v14c0,0.55469 0.44922,1 1,1h5v-21h2v14h8c0.55078,0 1,0.44531 1,1v7c0,1.10156 -0.89844,2 -2,2h-7v4c0,0.55469 0.44922,1 1,1h28c0.55469,0 1,-0.44531 1,-1v-4h-7c-1.10156,0 -2,-0.89844 -2,-2v-7c0,-0.55469 0.44531,-1 1,-1h8v-5h-5c-1.10156,0 -2,-0.89844 -2,-2v-6c0,-0.55078 0.44531,-1 1,-1h8v21h5c0.55469,0 1,-0.44531 1,-1v-14c0,-8.77734 -5.63281,-13.98828 -9.15625,-16.8125zM35,21v5h5v-5zM27,27c0.55078,0 1,0.44922 1,1c0,0.55078 -0.44922,1 -1,1c-0.55078,0 -1,-0.44922 -1,-1c0,-0.55078 0.44922,-1 1,-1zM27,32c0.55078,0 1,0.44922 1,1c0,0.55078 -0.44922,1 -1,1c-0.55078,0 -1,-0.44922 -1,-1c0,-0.55078 0.44922,-1 1,-1zM10,35v6h7v-6zM33,35v6h7v-6zM27,37c0.55078,0 1,0.44922 1,1c0,0.55078 -0.44922,1 -1,1c-0.55078,0 -1,-0.44922 -1,-1c0,-0.55078 0.44922,-1 1,-1z"></path></g></g></svg>