<svg xmlns="http://www.w3.org/2000/svg" viewBox="0 0 256 256" width="50px" height="50px" fill-rule="evenodd"><g fill="#222222" fill-rule="evenodd" stroke="none"><g transform="scale(5.12,5.12)"><path d="M25,2c-0.28906,0 -0.57812,0.06641 -0.84375,0.1875l-18,8.21875c-0.70703,0.3125 -1.15625,1.01172 -1.15625,1.78125v12.8125c0,13.48828 11.83594,21.1875 18.625,22.84375c0.9375,0.23047 1.81641,0.23047 2.75,0c6.78906,-1.65625 18.625,-9.35547 18.625,-22.84375v-12.8125c0,-0.76953 -0.44922,-1.46875 -1.15625,-1.78125l-18,-8.21875c-0.26562,-0.12109 -0.55469,-0.1875 -0.84375,-0.1875zM22.28125,33.71875l-6.4375,-6.4375c-0.39063,-0.39063 -0.39063,-1.02344 0,-1.4375l0.71875,-0.71875c0.39063,-0.39063 1.02344,-0.39063 1.4375,0l4.28125,4.28125l10.28125,-10.28125c0.39063,-0.39063 1.02344,-0.39063 1.4375,0l0.71875,0.71875c0.39063,0.39063 0.39063,1.02344 0,1.4375l-11.71875,11.71875c-0.39063,0.39063 -1.02344,0.39063 -1.4375,0z"></path></g></g></svg>
